<svg width="24" height="24" viewBox="0 0 69 71" fill="none" xmlns="http://www.w3.org/2000/svg">
<rect x="0.141235" width="68.4181" height="71" rx="34.209" fill="white"/>
<path d="M26.059 39.6401V35.2026C26.059 33.8693 26.2985 32.4943 26.7777 31.0776C27.2777 29.6401 27.9548 28.286 28.809 27.0151C29.6631 25.7235 30.611 24.6297 31.6527 23.7339L35.6215 26.1089C34.8298 27.4006 34.1631 28.7651 33.6215 30.2026C33.0798 31.6401 32.809 33.2964 32.809 35.1714V39.6401H26.059ZM36.4965 39.6401V35.2026C36.4965 33.8693 36.736 32.4943 37.2152 31.0776C37.7152 29.6401 38.3923 28.286 39.2465 27.0151C40.1006 25.7235 41.0485 24.6297 42.0902 23.7339L46.059 26.1089C45.2673 27.4006 44.6006 28.7651 44.059 30.2026C43.5173 31.6401 43.2465 33.2964 43.2465 35.1714V39.6401H36.4965Z" fill="#001D32"/>
</svg>
